<svg width="840" height="220" viewBox="0 0 840 220" xmlns="http://www.w3.org/2000/svg">
  <defs>
    <linearGradient id="bg" x1="0" y1="0" x2="1" y2="1">
      <stop offset="0%" stop-color="#0d1117"/>
      <stop offset="100%" stop-color="#111a2b"/>
    </linearGradient>
  </defs>

  <style>
    @keyframes catFade {
      0%, 16%  { opacity: 1; }
      20%      { opacity: 0; }
      100%     { opacity: 0; }
    }
    @keyframes dotFade {
      0%, 16%  { opacity: 1; }
      20%      { opacity: 0.3; }
      100%     { opacity: 0.3; }
    }
    @keyframes iconFloat {
      0%, 100% { transform: translateY(0); }
      50%      { transform: translateY(-4px); }
    }
    .slide { animation: catFade 20s linear infinite; }
    .s0 { animation-delay: 0s; }
    .s1 { animation-delay: -4s; }
    .s2 { animation-delay: -8s; }
    .s3 { animation-delay: -12s; }
    .s4 { animation-delay: -16s; }
    .dot { animation: dotFade 20s linear infinite; }
    .icon-float { animation: iconFloat 3s ease-in-out infinite; }
    .fi0 { animation-delay: 0s; } .fi1 { animation-delay: .2s; } .fi2 { animation-delay: .4s; }
    .fi3 { animation-delay: .6s; } .fi4 { animation-delay: .8s; } .fi5 { animation-delay: 1s; }
  </style>

  <rect width="840" height="220" fill="url(#bg)"/>

  <!-- ===================== Slide 0: Languages ===================== -->
  <g class="slide s0">
    <text x="40" y="40" font-family="'Fira Code', monospace" font-size="15" fill="#00ADD8">Languages</text>

    <g transform="translate(53,120)">
      <g class="icon-float fi0"><circle r="27" fill="#0d1b26" stroke="#00ADD8" stroke-width="1.4"/>
        <g transform="scale(1.05) translate(-12,-12)"><path fill="#00ADD8" d="M1.811 10.231c-.047 0-.058-.023-.035-.059l.246-.315c.023-.035.081-.058.128-.058h4.172c.046 0 .058.035.035.07l-.199.303c-.023.036-.082.07-.117.07zM.047 11.306c-.047 0-.059-.023-.035-.058l.245-.316c.023-.035.082-.058.129-.058h5.328c.047 0 .07.035.058.07l-.093.28c-.012.047-.058.07-.105.07zm2.828 1.075c-.047 0-.059-.035-.035-.07l.163-.292c.023-.035.07-.07.117-.07h2.337c.047 0 .07.035.07.082l-.023.28c0 .047-.047.082-.082.082zm12.129-2.36c-.736.187-1.239.327-1.963.514-.176.046-.187.058-.34-.117-.174-.199-.303-.327-.548-.444-.737-.362-1.45-.257-2.115.175-.795.514-1.204 1.274-1.192 2.22.011.935.654 1.706 1.577 1.835.795.105 1.46-.175 1.987-.77.105-.13.198-.27.315-.434H10.47c-.245 0-.304-.152-.222-.35.152-.362.432-.97.596-1.274a.315.315 0 01.292-.187h4.253c-.023.316-.023.631-.07.947a4.983 4.983 0 01-.958 2.29c-.841 1.11-1.94 1.8-3.33 1.986-1.145.152-2.209-.07-3.143-.77-.865-.655-1.356-1.52-1.484-2.595-.152-1.274.222-2.419.993-3.424.83-1.086 1.928-1.776 3.272-2.02 1.098-.2 2.15-.07 3.096.571.62.41 1.063.97 1.356 1.648.07.105.023.164-.117.2m3.868 6.461c-1.064-.024-2.034-.328-2.852-1.029a3.665 3.665 0 01-1.262-2.255c-.21-1.32.152-2.489.947-3.529.853-1.122 1.881-1.706 3.272-1.95 1.192-.21 2.314-.095 3.33.595.923.63 1.496 1.484 1.648 2.605.198 1.578-.257 2.863-1.344 3.962-.771.783-1.718 1.273-2.805 1.495-.315.06-.63.07-.934.106zm2.78-4.72c-.011-.153-.011-.27-.034-.387-.21-1.157-1.274-1.81-2.384-1.554-1.087.245-1.788.935-2.045 2.033-.21.912.234 1.835 1.075 2.21.643.28 1.285.244 1.905-.07.923-.48 1.425-1.228 1.484-2.233z"/></g>
      </g>
      <text x="0" y="46" font-family="Segoe UI, sans-serif" font-size="12" fill="#c9d1d9" text-anchor="middle">Go</text>
    </g>
    <g transform="translate(184,120)">
      <g class="icon-float fi1"><circle r="27" fill="#0d1b26" stroke="#3178C6" stroke-width="1.4"/>
        <g transform="scale(1.05) translate(-12,-12)"><path fill="#3178C6" d="M1.125 0C.502 0 0 .502 0 1.125v21.75C0 23.498.502 24 1.125 24h21.75c.623 0 1.125-.502 1.125-1.125V1.125C24 .502 23.498 0 22.875 0zm17.363 9.75c.612 0 1.154.037 1.627.111a6.38 6.38 0 0 1 1.306.34v2.458a3.95 3.95 0 0 0-.643-.361 5.093 5.093 0 0 0-.717-.26 5.453 5.453 0 0 0-1.426-.2c-.3 0-.573.028-.819.086a2.1 2.1 0 0 0-.623.242c-.17.104-.3.229-.393.374a.888.888 0 0 0-.14.49c0 .196.053.373.156.529.104.156.252.304.443.444s.423.276.696.41c.273.135.582.274.926.416.47.197.892.407 1.266.628.374.222.695.473.963.753.268.279.472.598.614.957.142.359.214.776.214 1.253 0 .657-.125 1.21-.373 1.656a3.033 3.033 0 0 1-1.012 1.085 4.38 4.38 0 0 1-1.487.596c-.566.12-1.163.18-1.79.18a9.916 9.916 0 0 1-1.84-.164 5.544 5.544 0 0 1-1.512-.493v-2.63a5.033 5.033 0 0 0 3.237 1.2c.333 0 .624-.03.872-.09.249-.06.456-.144.623-.25.166-.108.29-.234.373-.38a1.023 1.023 0 0 0-.074-1.089 2.12 2.12 0 0 0-.537-.5 5.597 5.597 0 0 0-.807-.444 27.72 27.72 0 0 0-1.007-.436c-.918-.383-1.602-.852-2.053-1.405-.45-.553-.676-1.222-.676-2.005 0-.614.123-1.141.369-1.582.246-.441.58-.804 1.004-1.089a4.494 4.494 0 0 1 1.47-.629 7.536 7.536 0 0 1 1.77-.201zm-15.113.188h9.563v2.166H9.506v9.646H6.789v-9.646H3.375z"/></g>
      </g>
      <text x="0" y="46" font-family="Segoe UI, sans-serif" font-size="12" fill="#c9d1d9" text-anchor="middle">TypeScript</text>
    </g>
    <g transform="translate(315,120)">
      <g class="icon-float fi2"><circle r="27" fill="#0d1b26" stroke="#F7DF1E" stroke-width="1.4"/>
        <g transform="scale(1.05) translate(-12,-12)"><path fill="#F7DF1E" d="M0 0h24v24H0V0zm22.034 18.276c-.175-1.095-.888-2.015-3.003-2.873-.736-.345-1.554-.585-1.797-1.14-.091-.33-.105-.51-.046-.705.15-.646.915-.84 1.515-.66.39.12.75.42.976.9 1.034-.676 1.034-.676 1.755-1.125-.27-.42-.404-.601-.586-.78-.63-.705-1.469-1.065-2.834-1.034l-.705.089c-.676.165-1.32.525-1.71 1.005-1.14 1.291-.811 3.541.569 4.471 1.365 1.02 3.361 1.244 3.616 2.205.24 1.17-.87 1.545-1.966 1.41-.811-.18-1.26-.586-1.755-1.336l-1.83 1.051c.21.48.45.689.81 1.109 1.74 1.756 6.09 1.666 6.871-1.004.029-.09.24-.705.074-1.65l.046.067zm-8.983-7.245h-2.248c0 1.938-.009 3.864-.009 5.805 0 1.232.063 2.363-.138 2.711-.33.689-1.18.601-1.566.48-.396-.196-.597-.466-.83-.855-.063-.105-.11-.196-.127-.196l-1.825 1.125c.305.63.75 1.172 1.324 1.517.855.51 2.004.675 3.207.405.783-.226 1.458-.691 1.811-1.411.51-.93.402-2.07.397-3.346.012-2.054 0-4.109 0-6.179l.004-.056z"/></g>
      </g>
      <text x="0" y="46" font-family="Segoe UI, sans-serif" font-size="12" fill="#c9d1d9" text-anchor="middle">JavaScript</text>
    </g>
    <g transform="translate(446,120)">
      <g class="icon-float fi3"><circle r="27" fill="#0d1b26" stroke="#0175C2" stroke-width="1.4"/>
        <g transform="scale(1.05) translate(-12,-12)"><path fill="#0175C2" d="M4.105 4.105S9.158 1.58 11.684.316a3.079 3.079 0 0 1 1.481-.315c.766.047 1.677.788 1.677.788L24 9.948v9.789h-4.263V24H9.789l-9-9C.303 14.5 0 13.795 0 13.105c0-.319.18-.818.316-1.105l3.789-7.895zm.679.679v11.787c.002.543.021 1.024.498 1.508L10.204 23h8.533v-4.263L4.784 4.784zm12.055-.678c-.899-.896-1.809-1.78-2.74-2.643-.302-.267-.567-.468-1.07-.462-.37.014-.87.195-.87.195L6.341 4.105l10.498.001z"/></g>
      </g>
      <text x="0" y="46" font-family="Segoe UI, sans-serif" font-size="12" fill="#c9d1d9" text-anchor="middle">Dart</text>
    </g>
    <g transform="translate(577,120)">
      <g class="icon-float fi4"><circle r="27" fill="#0d1b26" stroke="#3776AB" stroke-width="1.4"/>
        <g transform="scale(1.05) translate(-12,-12)"><path fill="#3776AB" d="M14.25.18l.9.2.73.26.59.3.45.32.34.34.25.34.16.33.1.3.04.26.02.2-.01.13V8.5l-.05.63-.13.55-.21.46-.26.38-.3.31-.33.25-.35.19-.35.14-.33.1-.3.07-.26.04-.21.02H8.77l-.69.05-.59.14-.5.22-.41.27-.33.32-.27.35-.2.36-.15.37-.1.35-.07.32-.04.27-.02.21v3.06H3.17l-.21-.03-.28-.07-.32-.12-.35-.18-.36-.26-.36-.36-.35-.46-.32-.59-.28-.73-.21-.88-.14-1.05-.05-1.23.06-1.22.16-1.04.24-.87.32-.71.36-.57.4-.44.42-.33.42-.24.4-.16.36-.1.32-.05.24-.01h.16l.06.01h8.16v-.83H6.18l-.01-2.75-.02-.37.05-.34.11-.31.17-.28.25-.26.31-.23.38-.2.44-.18.51-.15.58-.12.64-.1.71-.06.77-.04.84-.02 1.27.05zm-6.3 1.98l-.23.33-.08.41.08.41.23.34.33.22.41.09.41-.09.33-.22.23-.34.08-.41-.08-.41-.23-.33-.33-.22-.41-.09-.41.09zm13.09 3.95l.28.06.32.12.35.18.36.27.36.35.35.47.32.59.28.73.21.88.14 1.04.05 1.23-.06 1.23-.16 1.04-.24.86-.32.71-.36.57-.4.45-.42.33-.42.24-.4.16-.36.09-.32.05-.24.02-.16-.01h-8.22v.82h5.84l.01 2.76.02.36-.05.34-.11.31-.17.29-.25.25-.31.24-.38.2-.44.17-.51.15-.58.13-.64.09-.71.07-.77.04-.84.01-1.27-.04-1.07-.14-.9-.2-.73-.25-.59-.3-.45-.33-.34-.34-.25-.34-.16-.33-.1-.3-.04-.25-.02-.2.01-.13v-5.34l.05-.64.13-.54.21-.46.26-.38.3-.32.33-.24.35-.2.35-.14.33-.1.3-.06.26-.04.21-.02.13-.01h5.84l.69-.05.59-.14.5-.21.41-.28.33-.32.27-.35.2-.36.15-.36.1-.35.07-.32.04-.28.02-.21V6.07h2.09l.14.01zm-6.47 14.25l-.23.33-.08.41.08.41.23.33.33.23.41.08.41-.08.33-.23.23-.33.08-.41-.08-.41-.23-.33-.33-.23-.41-.08-.41.08z"/></g>
      </g>
      <text x="0" y="46" font-family="Segoe UI, sans-serif" font-size="12" fill="#c9d1d9" text-anchor="middle">Python</text>
    </g>
    <g transform="translate(708,120)">
      <g class="icon-float fi5"><circle r="27" fill="#0d1b26" stroke="#777BB4" stroke-width="1.4"/>
        <g transform="scale(1.05) translate(-12,-12)"><path fill="#777BB4" d="M7.01 10.207h-.944l-.515 2.648h.838c.556 0 .97-.105 1.242-.314.272-.21.455-.559.55-1.049.092-.47.05-.802-.124-.995-.175-.193-.523-.29-1.047-.29zM12 5.688C5.373 5.688 0 8.514 0 12s5.373 6.313 12 6.313S24 15.486 24 12c0-3.486-5.373-6.312-12-6.312zm-3.26 7.451c-.261.25-.575.438-.917.551-.336.108-.765.164-1.285.164H5.357l-.327 1.681H3.652l1.23-6.326h2.65c.797 0 1.378.209 1.744.628.366.418.476 1.002.33 1.752a2.836 2.836 0 0 1-.305.847c-.143.255-.33.49-.561.703zm4.024.715l.543-2.799c.063-.318.039-.536-.068-.651-.107-.116-.336-.174-.687-.174H11.46l-.704 3.625H9.388l1.23-6.327h1.367l-.327 1.682h1.218c.767 0 1.295.134 1.586.401s.378.7.263 1.299l-.572 2.944h-1.389zm7.597-2.265a2.782 2.782 0 0 1-.305.847c-.143.255-.33.49-.561.703a2.44 2.44 0 0 1-.917.551c-.336.108-.765.164-1.286.164h-1.18l-.327 1.682h-1.378l1.23-6.326h2.649c.797 0 1.378.209 1.744.628.366.417.477 1.001.331 1.751zM17.766 10.207h-.943l-.516 2.648h.838c.557 0 .971-.105 1.242-.314.272-.21.455-.559.551-1.049.092-.47.049-.802-.125-.995s-.524-.29-1.047-.29z"/></g>
      </g>
      <text x="0" y="46" font-family="Segoe UI, sans-serif" font-size="12" fill="#c9d1d9" text-anchor="middle">PHP</text>
    </g>
  </g>

  <!-- ===================== Slide 1: Backend ===================== -->
  <g class="slide s1">
    <text x="40" y="40" font-family="'Fira Code', monospace" font-size="15" fill="#339933">Backend</text>

    <g transform="translate(80,120)">
      <g class="icon-float fi0"><circle r="27" fill="#0d1b26" stroke="#339933" stroke-width="1.4"/>
        <g transform="scale(1.05) translate(-12,-12)"><path fill="#339933" d="M11.998,24c-0.321,0-0.641-0.084-0.922-0.247l-2.936-1.737c-0.438-0.245-0.224-0.332-0.08-0.383 c0.585-0.203,0.703-0.25,1.328-0.604c0.065-0.037,0.151-0.023,0.218,0.017l2.256,1.339c0.082,0.045,0.197,0.045,0.272,0l8.795-5.076 c0.082-0.047,0.134-0.141,0.134-0.238V6.921c0-0.099-0.053-0.192-0.137-0.242l-8.791-5.072c-0.081-0.047-0.189-0.047-0.271,0 L3.075,6.68C2.99,6.729,2.936,6.825,2.936,6.921v10.15c0,0.097,0.054,0.189,0.139,0.235l2.409,1.392 c1.307,0.654,2.108-0.116,2.108-0.89V7.787c0-0.142,0.114-0.253,0.256-0.253h1.115c0.139,0,0.255,0.112,0.255,0.253v10.021 c0,1.745-0.95,2.745-2.604,2.745c-0.508,0-0.909,0-2.026-0.551L2.28,18.675c-0.57-0.329-0.922-0.945-0.922-1.604V6.921 c0-0.659,0.353-1.275,0.922-1.603l8.795-5.082c0.557-0.315,1.296-0.315,1.848,0l8.794,5.082c0.57,0.329,0.924,0.944,0.924,1.603 v10.15c0,0.659-0.354,1.273-0.924,1.604l-8.794,5.078C12.643,23.916,12.324,24,11.998,24z M19.099,13.993 c0-1.9-1.284-2.406-3.987-2.763c-2.731-0.361-3.009-0.548-3.009-1.187c0-0.528,0.235-1.233,2.258-1.233 c1.807,0,2.473,0.389,2.747,1.607c0.024,0.115,0.129,0.199,0.247,0.199h1.141c0.071,0,0.138-0.031,0.186-0.081 c0.048-0.054,0.074-0.123,0.067-0.196c-0.177-2.098-1.571-3.076-4.388-3.076c-2.508,0-4.004,1.058-4.004,2.833 c0,1.925,1.488,2.457,3.895,2.695c2.88,0.282,3.103,0.703,3.103,1.269c0,0.983-0.789,1.402-2.642,1.402 c-2.327,0-2.839-0.584-3.011-1.742c-0.02-0.124-0.126-0.215-0.253-0.215h-1.137c-0.141,0-0.254,0.112-0.254,0.253 c0,1.482,0.806,3.248,4.655,3.248C17.501,17.007,19.099,15.91,19.099,13.993z"/></g>
      </g>
      <text x="0" y="46" font-family="Segoe UI, sans-serif" font-size="12" fill="#c9d1d9" text-anchor="middle">Node.js</text>
    </g>
    <g transform="translate(275,120)">
      <g class="icon-float fi1"><circle r="27" fill="#0d1b26" stroke="#E0234E" stroke-width="1.4"/>
        <g transform="scale(1.05) translate(-12,-12)"><path fill="#E0234E" d="M14.131.047c-.173 0-.334.037-.483.087.316.21.49.49.576.806.007.043.019.074.025.117a.681.681 0 0 1 .013.112c.024.545-.143.614-.26.936-.18.415-.13.861.086 1.22a.74.74 0 0 0 .074.137c-.235-1.568 1.073-1.803 1.314-2.293.019-.428-.334-.713-.613-.911a1.37 1.37 0 0 0-.732-.21zm7.363 13.352c-1.899 5.11-6.4 7.417-8.845 7.417-1.968 0-3.677-1.156-3.677-3.5 0-2.06 1.318-3.417 2.987-3.417.99 0 1.646.55 1.646 1.375 0 .55-.352.99-.66 1.155-.11.055-.11.11-.055.22.11.33.55.66 1.21.66 1.098 0 2.087-1.045 2.087-2.75 0-2.42-2.087-3.72-4.394-3.72-3.897 0-6.71 3.28-6.71 6.99 0 3.06 2.19 4.94 5.03 4.94 3.457 0 6.62-2.585 8.075-7.14.11-.33.033-.44-.22-.33-.44.165-.99.33-1.474.33z"/></g>
      </g>
      <text x="0" y="46" font-family="Segoe UI, sans-serif" font-size="12" fill="#c9d1d9" text-anchor="middle">NestJS</text>
    </g>
    <g transform="translate(470,120)">
      <g class="icon-float fi2"><circle r="27" fill="#0d1b26" stroke="#ffffff" stroke-width="1.4"/>
        <g transform="scale(1.05) translate(-12,-12)"><path fill="#ffffff" d="M12.262 16.666h1.146l6.975-9.325H19.22zm9.778 1.441v.004l-4.334-5.706-.557.74 4.873 6.682H.945V4.173h9.505l5.026 6.7.574-.772-4.374-5.928h.003l-.719-.945H0v17.544h24zM10.917 8.705a3.8 3.8 0 0 0-1.292-1.183q-.796-.45-1.916-.45c-.746 0-1.37.14-1.906.424a3.76 3.76 0 0 0-1.31 1.12 4.9 4.9 0 0 0-.75 1.581 7.17 7.17 0 0 0 0 3.696c.148.567.402 1.101.75 1.573a3.5 3.5 0 0 0 1.31 1.066q.803.39 1.906.389 1.77 0 2.739-.868.966-.867 1.328-2.457h-1.139q-.271 1.084-.977 1.734-.704.651-1.952.65-.812 0-1.392-.342a3.1 3.1 0 0 1-.957-.869 3.5 3.5 0 0 1-.551-1.182 5 5 0 0 1-.17-1.133 9 9 0 0 0-.015-.286 4.5 4.5 0 0 1 .015-.829c.047-.418.147-.83.296-1.223A3.7 3.7 0 0 1 5.54 9.05a2.9 2.9 0 0 1 .922-.742q.541-.28 1.246-.28c.47 0 .869.093 1.23.28q.541.281.922.742.379.461.587 1.057t.225 1.246H5.625l.004.957h6.182a7.3 7.3 0 0 0-.18-1.924 4.9 4.9 0 0 0-.715-1.68z"/></g>
      </g>
      <text x="0" y="46" font-family="Segoe UI, sans-serif" font-size="12" fill="#c9d1d9" text-anchor="middle">Express</text>
    </g>
    <g transform="translate(665,120)">
      <g class="icon-float fi3"><circle r="27" fill="#0d1b26" stroke="#00ADD8" stroke-width="1.4"/>
        <g transform="scale(1.05) translate(-12,-12)"><path fill="#00ADD8" d="M1.811 10.231c-.047 0-.058-.023-.035-.059l.246-.315c.023-.035.081-.058.128-.058h4.172c.046 0 .058.035.035.07l-.199.303c-.023.036-.082.07-.117.07zM.047 11.306c-.047 0-.059-.023-.035-.058l.245-.316c.023-.035.082-.058.129-.058h5.328c.047 0 .07.035.058.07l-.093.28c-.012.047-.058.07-.105.07zm2.828 1.075c-.047 0-.059-.035-.035-.07l.163-.292c.023-.035.07-.07.117-.07h2.337c.047 0 .07.035.07.082l-.023.28c0 .047-.047.082-.082.082zm12.129-2.36c-.736.187-1.239.327-1.963.514-.176.046-.187.058-.34-.117-.174-.199-.303-.327-.548-.444-.737-.362-1.45-.257-2.115.175-.795.514-1.204 1.274-1.192 2.22.011.935.654 1.706 1.577 1.835.795.105 1.46-.175 1.987-.77.105-.13.198-.27.315-.434H10.47c-.245 0-.304-.152-.222-.35.152-.362.432-.97.596-1.274a.315.315 0 01.292-.187h4.253c-.023.316-.023.631-.07.947a4.983 4.983 0 01-.958 2.29c-.841 1.11-1.94 1.8-3.33 1.986-1.145.152-2.209-.07-3.143-.77-.865-.655-1.356-1.52-1.484-2.595-.152-1.274.222-2.419.993-3.424.83-1.086 1.928-1.776 3.272-2.02 1.098-.2 2.15-.07 3.096.571.62.41 1.063.97 1.356 1.648.07.105.023.164-.117.2m3.868 6.461c-1.064-.024-2.034-.328-2.852-1.029a3.665 3.665 0 01-1.262-2.255c-.21-1.32.152-2.489.947-3.529.853-1.122 1.881-1.706 3.272-1.95 1.192-.21 2.314-.095 3.33.595.923.63 1.496 1.484 1.648 2.605.198 1.578-.257 2.863-1.344 3.962-.771.783-1.718 1.273-2.805 1.495-.315.06-.63.07-.934.106zm2.78-4.72c-.011-.153-.011-.27-.034-.387-.21-1.157-1.274-1.81-2.384-1.554-1.087.245-1.788.935-2.045 2.033-.21.912.234 1.835 1.075 2.21.643.28 1.285.244 1.905-.07.923-.48 1.425-1.228 1.484-2.233z"/></g>
      </g>
      <text x="0" y="46" font-family="Segoe UI, sans-serif" font-size="12" fill="#c9d1d9" text-anchor="middle">Fiber (Go)</text>
    </g>
  </g>

  <!-- ===================== Slide 2: Databases ===================== -->
  <g class="slide s2">
    <text x="40" y="40" font-family="'Fira Code', monospace" font-size="15" fill="#47A248">Databases</text>

    <g transform="translate(80,120)">
      <g class="icon-float fi0"><circle r="27" fill="#0d1b26" stroke="#47A248" stroke-width="1.4"/>
        <g transform="scale(1.05) translate(-12,-12)"><path fill="#47A248" d="M17.193 9.555c-1.264-5.58-4.252-7.414-4.573-8.115-.28-.394-.53-.954-.735-1.44-.036.495-.055.685-.523 1.184-.723.566-4.438 3.682-4.74 10.02-.282 5.912 4.27 9.435 4.888 9.884l.07.05A73.49 73.49 0 0111.91 24h.481c.114-1.032.284-2.056.51-3.07.417-.296.604-.463.85-.693a11.342 11.342 0 003.639-8.464c.01-.814-.103-1.662-.197-2.218zm-5.336 8.195s0-8.291.275-8.29c.213 0 .49 10.695.49 10.695-.381-.045-.765-1.76-.765-2.405z"/></g>
      </g>
      <text x="0" y="46" font-family="Segoe UI, sans-serif" font-size="12" fill="#c9d1d9" text-anchor="middle">MongoDB</text>
    </g>
    <g transform="translate(275,120)">
      <g class="icon-float fi1"><circle r="27" fill="#0d1b26" stroke="#4169E1" stroke-width="1.4"/>
        <g transform="scale(1.05) translate(-12,-12)"><path fill="#4169E1" d="M23.5594 14.7228a.5269.5269 0 0 0-.0563-.1191c-.139-.2632-.4768-.3418-1.0074-.2321-1.6533.3411-2.2935.1312-2.5256-.0191 1.342-2.0482 2.445-4.522 3.0411-6.8297.2714-1.0507.7982-3.5237.1222-4.7316a1.5641 1.5641 0 0 0-.1509-.235C21.6931.9086 19.8007.0248 17.5099.0005c-1.4947-.0158-2.7705.3461-3.1161.4794a9.449 9.449 0 0 0-.5159-.0816 8.044 8.044 0 0 0-1.3114-.1278c-1.1822-.0184-2.2038.2642-3.0498.8406-.8573-.3211-4.7888-1.645-7.2219.0788C.9359 2.1526.3086 3.8733.4302 6.3043c.0409.818.5069 3.334 1.2423 5.7436.4598 1.5065.9387 2.7019 1.4334 3.582.553.9942 1.1259 1.5933 1.7143 1.7895.4474.1491 1.1327.1441 1.8581-.7279.8012-.9635 1.5903-1.8258 1.9446-2.2069.4351.2355.9064.3625 1.39.3772a.0569.0569 0 0 0 .0004.0041 11.0312 11.0312 0 0 0-.2472.3054c-.3389.4302-.4094.5197-1.5002.7443-.3102.064-1.1344.2339-1.1464.8115-.0025.1224.0329.2309.0919.3268.2269.4231.9216.6097 1.015.6331 1.3345.3335 2.5044.092 3.3714-.6787-.017 2.231.0775 4.4174.3454 5.0874.2212.5529.7618 1.9045 2.4692 1.9043.2505 0 .5263-.0291.8296-.0941 1.7819-.3821 2.5557-1.1696 2.855-2.9059.1503-.8707.4016-2.8753.5388-4.1012.0169-.0703.0357-.1207.057-.1362.0007-.0005.0697-.0471.4272.0307a.3673.3673 0 0 0 .0443.0068l.2539.0223.0149.001c.8468.0384 1.9114-.1426 2.5312-.4308.6438-.2988 1.8057-1.0323 1.5951-1.6698z"/></g>
      </g>
      <text x="0" y="46" font-family="Segoe UI, sans-serif" font-size="12" fill="#c9d1d9" text-anchor="middle">PostgreSQL</text>
    </g>
    <g transform="translate(470,120)">
      <g class="icon-float fi2"><circle r="27" fill="#0d1b26" stroke="#DC382D" stroke-width="1.4"/>
        <g transform="scale(1.05) translate(-12,-12)"><path fill="#DC382D" d="M22.71 13.145c-1.66 2.092-3.452 4.483-7.038 4.483-3.203 0-4.397-2.825-4.48-5.12.701 1.484 2.073 2.685 4.214 2.63 4.117-.133 6.94-3.852 6.94-7.239 0-4.05-3.022-6.972-8.268-6.972-3.752 0-8.4 1.428-11.455 3.685C2.59 6.937 3.885 9.958 4.35 9.626c2.648-1.904 4.748-3.13 6.784-3.744C8.12 9.244.886 17.05 0 18.425c.1 1.261 1.66 4.648 2.424 4.648.232 0 .431-.133.664-.365a100.49 100.49 0 0 0 5.54-6.765c.222 3.104 1.748 6.898 6.014 6.898 3.819 0 7.604-2.756 9.33-8.965.2-.764-.73-1.361-1.261-.73z"/></g>
      </g>
      <text x="0" y="46" font-family="Segoe UI, sans-serif" font-size="12" fill="#c9d1d9" text-anchor="middle">Redis</text>
    </g>
    <g transform="translate(665,120)">
      <g class="icon-float fi3"><circle r="27" fill="#0d1b26" stroke="#3ECF8E" stroke-width="1.4"/>
        <g transform="scale(1.05) translate(-12,-12)"><path fill="#3ECF8E" d="M11.9 1.036c-.015-.986-1.26-1.41-1.874-.637L.764 12.05C-.33 13.427.65 15.455 2.409 15.455h9.579l.113 7.51c.014.985 1.259 1.408 1.873.636l9.262-11.653c1.093-1.375.113-3.403-1.645-3.403h-9.642z"/></g>
      </g>
      <text x="0" y="46" font-family="Segoe UI, sans-serif" font-size="12" fill="#c9d1d9" text-anchor="middle">Supabase</text>
    </g>
  </g>

  <!-- ===================== Slide 3: Frontend & Mobile ===================== -->
  <g class="slide s3">
    <text x="40" y="40" font-family="'Fira Code', monospace" font-size="15" fill="#61DAFB">Frontend &amp; Mobile</text>

    <g transform="translate(80,120)">
      <g class="icon-float fi0"><circle r="27" fill="#0d1b26" stroke="#61DAFB" stroke-width="1.4"/>
        <g transform="scale(1.05) translate(-12,-12)"><path fill="#61DAFB" d="M14.23 12.004a2.236 2.236 0 0 1-2.235 2.236 2.236 2.236 0 0 1-2.236-2.236 2.236 2.236 0 0 1 2.235-2.236 2.236 2.236 0 0 1 2.236 2.236zm2.648-10.69c-1.346 0-3.107.96-4.888 2.622-1.78-1.653-3.542-2.602-4.887-2.602-.41 0-.783.093-1.106.278-1.375.793-1.683 3.264-.973 6.365C1.98 8.917 0 10.42 0 12.004c0 1.59 1.99 3.097 5.043 4.03-.704 3.113-.39 5.588.988 6.38.32.187.69.275 1.102.275 1.345 0 3.107-.96 4.888-2.624 1.78 1.654 3.542 2.603 4.887 2.603.41 0 .783-.09 1.106-.275 1.374-.792 1.683-3.263.973-6.365C22.02 15.096 24 13.59 24 12.004c0-1.59-1.99-3.097-5.043-4.032.704-3.11.39-5.587-.988-6.38-.318-.184-.688-.277-1.092-.278z"/></g>
      </g>
      <text x="0" y="46" font-family="Segoe UI, sans-serif" font-size="12" fill="#c9d1d9" text-anchor="middle">React</text>
    </g>
    <g transform="translate(275,120)">
      <g class="icon-float fi1"><circle r="27" fill="#0d1b26" stroke="#02569B" stroke-width="1.4"/>
        <g transform="scale(1.05) translate(-12,-12)"><path fill="#02569B" d="M14.314 0L2.3 12 6 15.7 21.684.013h-7.357zm.014 11.072L7.857 17.53l6.47 6.47H21.7l-6.46-6.468 6.46-6.46h-7.37z"/></g>
      </g>
      <text x="0" y="46" font-family="Segoe UI, sans-serif" font-size="12" fill="#c9d1d9" text-anchor="middle">Flutter</text>
    </g>
    <g transform="translate(470,120)">
      <g class="icon-float fi2"><circle r="27" fill="#0d1b26" stroke="#06B6D4" stroke-width="1.4"/>
        <g transform="scale(1.05) translate(-12,-12)"><path fill="#06B6D4" d="M12.001,4.8c-3.2,0-5.2,1.6-6,4.8c1.2-1.6,2.6-2.2,4.2-1.8c0.913,0.228,1.565,0.89,2.288,1.624 C13.666,10.618,15.027,12,18.001,12c3.2,0,5.2-1.6,6-4.8c-1.2,1.6-2.6,2.2-4.2,1.8c-0.913-0.228-1.565-0.89-2.288-1.624 C16.337,6.182,14.976,4.8,12.001,4.8z M6.001,12c-3.2,0-5.2,1.6-6,4.8c1.2-1.6,2.6-2.2,4.2-1.8c0.913,0.228,1.565,0.89,2.288,1.624 c1.177,1.194,2.538,2.576,5.512,2.576c3.2,0,5.2-1.6,6-4.8c-1.2,1.6-2.6,2.2-4.2,1.8c-0.913-0.228-1.565-0.89-2.288-1.624 C10.337,13.382,8.976,12,6.001,12z"/></g>
      </g>
      <text x="0" y="46" font-family="Segoe UI, sans-serif" font-size="12" fill="#c9d1d9" text-anchor="middle">Tailwind</text>
    </g>
    <g transform="translate(665,120)">
      <g class="icon-float fi3"><circle r="27" fill="#0d1b26" stroke="#646CFF" stroke-width="1.4"/>
        <g transform="scale(1.05) translate(-12,-12)"><path fill="#646CFF" d="M13.056 23.238a.57.57 0 0 1-1.02-.355v-5.202c0-.63-.512-1.143-1.144-1.143H5.148a.57.57 0 0 1-.464-.903l3.777-5.29c.54-.753 0-1.804-.93-1.804H.57a.574.574 0 0 1-.543-.746.6.6 0 0 1 .08-.157L5.008.78a.57.57 0 0 1 .467-.24h14.589a.57.57 0 0 1 .466.903l-3.778 5.29c-.54.755 0 1.806.93 1.806h5.745c.238 0 .424.138.513.322a.56.56 0 0 1-.063.603z"/></g>
      </g>
      <text x="0" y="46" font-family="Segoe UI, sans-serif" font-size="12" fill="#c9d1d9" text-anchor="middle">Vite</text>
    </g>
  </g>

  <!-- ===================== Slide 4: DevOps & AI ===================== -->
  <g class="slide s4">
    <text x="40" y="40" font-family="'Fira Code', monospace" font-size="15" fill="#2496ED">DevOps &amp; AI</text>

    <g transform="translate(66,120)">
      <g class="icon-float fi0"><circle r="27" fill="#0d1b26" stroke="#2496ED" stroke-width="1.4"/>
        <g transform="scale(1.05) translate(-12,-12)"><path fill="#2496ED" d="M13.983 11.078h2.119a.186.186 0 00.186-.185V9.006a.186.186 0 00-.186-.186h-2.119a.185.185 0 00-.185.185v1.888c0 .102.083.185.185.185m-2.954-5.43h2.118a.186.186 0 00.186-.186V3.574a.186.186 0 00-.186-.185h-2.118a.185.185 0 00-.185.185v1.888c0 .102.082.185.185.185m0 2.716h2.118a.187.187 0 00.186-.186V6.29a.186.186 0 00-.186-.185h-2.118a.185.185 0 00-.185.185v1.887c0 .102.082.185.185.186m-2.93 0h2.12a.186.186 0 00.184-.186V6.29a.185.185 0 00-.185-.185H8.1a.185.185 0 00-.185.185v1.887c0 .102.083.185.185.186m-2.964 0h2.119a.186.186 0 00.185-.186V6.29a.185.185 0 00-.185-.185H5.136a.186.186 0 00-.186.185v1.887c0 .102.084.185.186.186m5.893 2.715h2.118a.186.186 0 00.186-.185V9.006a.186.186 0 00-.186-.186h-2.118a.185.185 0 00-.185.185v1.888c0 .102.082.185.185.185m-2.93 0h2.12a.185.185 0 00.184-.185V9.006a.185.185 0 00-.184-.186h-2.12a.185.185 0 00-.184.185v1.888c0 .102.083.185.185.185m-2.964 0h2.119a.185.185 0 00.185-.185V9.006a.185.185 0 00-.184-.186h-2.12a.186.186 0 00-.186.186v1.887c0 .102.084.185.186.185m-2.92 0h2.12a.185.185 0 00.184-.185V9.006a.185.185 0 00-.184-.186h-2.12a.185.185 0 00-.184.185v1.888c0 .102.082.185.185.185M23.763 9.89c-.065-.051-.672-.51-1.954-.51-.338.001-.676.03-1.01.087-.248-1.7-1.653-2.53-1.716-2.566l-.344-.199-.226.327c-.284.438-.49.922-.612 1.43-.23.97-.09 1.882.403 2.661-.595.332-1.55.413-1.744.42H.751a.751.751 0 00-.75.748 11.376 11.376 0 00.692 4.062c.545 1.428 1.355 2.48 2.41 3.124 1.18.723 3.1 1.137 5.275 1.137.983.003 1.963-.086 2.93-.266a12.248 12.248 0 003.823-1.389c.98-.567 1.86-1.288 2.61-2.136 1.252-1.418 1.998-2.997 2.553-4.4h.221c1.372 0 2.215-.549 2.68-1.009.309-.293.55-.65.707-1.046l.098-.288Z"/></g>
      </g>
      <text x="0" y="46" font-family="Segoe UI, sans-serif" font-size="12" fill="#c9d1d9" text-anchor="middle">Docker</text>
    </g>
    <g transform="translate(232,120)">
      <g class="icon-float fi1"><circle r="27" fill="#0d1b26" stroke="#F05032" stroke-width="1.4"/>
        <g transform="scale(1.05) translate(-12,-12)"><path fill="#F05032" d="M13.09 23.549a1.54 1.54 0 0 1-2.18 0L.451 13.089a1.54 1.54 0 0 1 0-2.179l7.191-7.19 2.733 2.733a1.85 1.85 0 0 0 .964 2.326v6.66a1.849 1.849 0 1 0 1.54 0V8.957l2.508 2.508a1.85 1.85 0 1 0 1.09-1.09l-2.634-2.634a1.85 1.85 0 0 0-2.378-2.377L8.73 2.63 10.91.451a1.54 1.54 0 0 1 2.179 0l10.459 10.46a1.54 1.54 0 0 1 0 2.179z"/></g>
      </g>
      <text x="0" y="46" font-family="Segoe UI, sans-serif" font-size="12" fill="#c9d1d9" text-anchor="middle">Git</text>
    </g>
    <g transform="translate(398,120)">
      <g class="icon-float fi2"><circle r="27" fill="#0d1b26" stroke="#FF6C37" stroke-width="1.4"/>
        <g transform="scale(1.05) translate(-12,-12)"><path fill="#FF6C37" d="M13.527.099C6.955-.744.942 3.9.099 10.473c-.843 6.572 3.8 12.584 10.373 13.428 6.573.843 12.587-3.801 13.428-10.374C24.744 6.955 20.101.943 13.527.099zm2.471 7.485a.855.855 0 0 0-.593.25l-4.453 4.453-.307-.307-.643-.643c4.389-4.376 5.18-4.418 5.996-3.753zm-4.863 4.861l4.44-4.44a.62.62 0 1 1 .847.903l-4.699 4.125-.588-.588zm.33.694l-1.1.238a.06.06 0 0 1-.067-.032.06.06 0 0 1 .01-.073l.645-.645.512.512zm-2.803-.459l1.172-1.172.879.878-1.979.426a.074.074 0 0 1-.085-.039.072.072 0 0 1 .013-.093z"/></g>
      </g>
      <text x="0" y="46" font-family="Segoe UI, sans-serif" font-size="12" fill="#c9d1d9" text-anchor="middle">Postman</text>
    </g>
    <g transform="translate(564,120)">
      <g class="icon-float fi3"><circle r="27" fill="#0d1b26" stroke="#8E75B2" stroke-width="1.4"/>
        <g transform="scale(1.05) translate(-12,-12)"><path fill="#8E75B2" d="M11.04 19.32Q12 21.51 12 24q0-2.49.93-4.68.96-2.19 2.58-3.81t3.81-2.55Q21.51 12 24 12q-2.49 0-4.68-.93a12.3 12.3 0 0 1-3.81-2.58 12.3 12.3 0 0 1-2.58-3.81Q12 2.49 12 0q0 2.49-.96 4.68-.93 2.19-2.55 3.81a12.3 12.3 0 0 1-3.81 2.58Q2.49 12 0 12q2.49 0 4.68.96 2.19.93 3.81 2.55t2.55 3.81"/></g>
      </g>
      <text x="0" y="46" font-family="Segoe UI, sans-serif" font-size="12" fill="#c9d1d9" text-anchor="middle">Gemini</text>
    </g>
    <g transform="translate(730,120)">
      <g class="icon-float fi4"><circle r="27" fill="#0d1b26" stroke="#EE4C2C" stroke-width="1.4"/>
        <g transform="scale(1.05) translate(-12,-12)"><path fill="#EE4C2C" d="M12.005 0L4.952 7.053a9.865 9.865 0 000 14.022 9.866 9.866 0 0014.022 0c3.984-3.9 3.986-10.205.085-14.023l-1.744 1.743c2.904 2.905 2.904 7.634 0 10.538s-7.634 2.904-10.538 0-2.904-7.634 0-10.538l4.647-4.646.582-.665zm3.568 3.899a1.327 1.327 0 00-1.327 1.327 1.327 1.327 0 001.327 1.328A1.327 1.327 0 0016.9 5.226 1.327 1.327 0 0015.573 3.9z"/></g>
      </g>
      <text x="0" y="46" font-family="Segoe UI, sans-serif" font-size="12" fill="#c9d1d9" text-anchor="middle">PyTorch</text>
    </g>
  </g>

  <!-- ===================== Bottom tab indicators ===================== -->
  <g transform="translate(0,0)">
    <circle class="dot s0" cx="380" cy="205" r="5" fill="#00ADD8"/>
    <circle class="dot s1" cx="400" cy="205" r="5" fill="#339933"/>
    <circle class="dot s2" cx="420" cy="205" r="5" fill="#4169E1"/>
    <circle class="dot s3" cx="440" cy="205" r="5" fill="#61DAFB"/>
    <circle class="dot s4" cx="460" cy="205" r="5" fill="#2496ED"/>
  </g>
</svg>
